name Walk10.mot
datacolumns 19
datarows 12
range 1.86000000 1.91500000
endheader

                time	   L_ground_force_vx	   L_ground_force_vy	   L_ground_force_vz	   L_ground_force_px	   L_ground_force_py	   L_ground_force_pz	   R_ground_force_vx	   R_ground_force_vy	   R_ground_force_vz	   R_ground_force_px	   R_ground_force_py	   R_ground_force_pz	   L_ground_torque_x	   L_ground_torque_y	   L_ground_torque_z	   R_ground_torque_x	   R_ground_torque_y	   R_ground_torque_z	
          1.86000000	        -47.72806723	        523.91533550	          9.43606385	          0.55512028	          0.00000000	          0.31032935	         -0.00585932	         -0.01936119	         -0.00002042	         -0.00000715	          0.00000000	          0.00005253	          0.00000000	         -1.11249680	          0.00000000	          0.00000000	          0.00007980	          0.00000000	
          1.86500000	        -45.57981203	        517.51345422	          9.99100657	          0.55725270	          0.00000000	          0.31010334	         -0.00737090	         -0.02131183	         -0.00034528	         -0.00000201	          0.00000000	          0.00002308	          0.00000000	         -1.13269728	          0.00000000	          0.00000000	          0.00003430	          0.00000000	
          1.87000000	        -43.47300161	        512.35025331	         10.87862472	          0.55927797	          0.00000000	          0.30983045	         -0.00775730	         -0.02087723	         -0.00052630	          0.00000144	          0.00000000	          0.00000236	          0.00000000	         -1.13145219	          0.00000000	          0.00000000	          0.00000241	          0.00000000	
          1.87500000	        -41.37064080	        508.44057333	         12.03708375	          0.56118875	          0.00000000	          0.30952116	         -0.00739158	         -0.01894740	         -0.00060076	          0.00000355	          0.00000000	         -0.00001111	          0.00000000	         -1.11466884	          0.00000000	          0.00000000	         -0.00001823	          0.00000000	
          1.88000000	        -39.24508413	        505.81504977	         13.38423175	          0.56297965	          0.00000000	          0.30918809	         -0.00657246	         -0.01621132	         -0.00060099	          0.00000461	          0.00000000	         -0.00001887	          0.00000000	         -1.08978050	          0.00000000	          0.00000000	         -0.00003002	          0.00000000	
          1.88500000	        -37.07676468	        504.51990569	         14.82305752	          0.56464829	          0.00000000	          0.30884427	         -0.00552738	         -0.01317461	         -0.00055362	          0.00000493	          0.00000000	         -0.00002235	          0.00000000	         -1.06554248	          0.00000000	          0.00000000	         -0.00003521	          0.00000000	
          1.89000000	        -34.84977037	        504.61301089	         16.24713775	          0.56619253	          0.00000000	          0.30850330	         -0.00442004	         -0.01018527	         -0.00047945	          0.00000475	          0.00000000	         -0.00002282	          0.00000000	         -1.05110463	          0.00000000	          0.00000000	         -0.00003576	          0.00000000	
          1.89500000	        -32.54842128	        506.15903113	         17.54758015	          0.56761105	          0.00000000	          0.30817877	         -0.00336035	         -0.00746273	         -0.00039397	          0.00000425	          0.00000000	         -0.00002131	          0.00000000	         -1.05501381	          0.00000000	          0.00000000	         -0.00003328	          0.00000000	
          1.90000000	        -30.15949743	        509.22702377	         18.62308402	          0.56890315	          0.00000000	          0.30788209	         -0.00241503	         -0.00512661	         -0.00030799	          0.00000360	          0.00000000	         -0.00001866	          0.00000000	         -1.08405195	          0.00000000	          0.00000000	         -0.00002905	          0.00000000	
          1.90500000	        -27.67591880	        513.87701514	         19.39281248	          0.57006766	          0.00000000	          0.30762150	         -0.00161781	         -0.00322305	         -0.00022850	          0.00000290	          0.00000000	         -0.00001549	          0.00000000	         -1.14236354	          0.00000000	          0.00000000	         -0.00002405	          0.00000000	
          1.91000000	        -25.09801670	        520.14188032	         19.80722428	          0.57110795	          0.00000000	          0.30740216	         -0.00097863	         -0.00174743	         -0.00015945	          0.00000222	          0.00000000	         -0.00001222	          0.00000000	         -1.23122549	          0.00000000	          0.00000000	         -0.00001894	          0.00000000	
          1.91500000	        -22.43302952	        528.01016329	         19.85237015	          0.57203430	          0.00000000	          0.30722686	         -0.00049133	         -0.00066294	         -0.00010256	          0.00000160	          0.00000000	         -0.00000917	          0.00000000	         -1.34905167	          0.00000000	          0.00000000	         -0.00001416	          0.00000000	
